<svg width="38" height="38" viewBox="0 0 38 38" fill="none" xmlns="http://www.w3.org/2000/svg">
<path fill-rule="evenodd" clip-rule="evenodd" d="M18.9967 3.92383C23.3998 3.92383 27.97 4.29973 32.6089 5.10036C32.6782 6.95999 32.7567 9.83447 32.6247 12.2737C32.3291 17.712 31.1322 21.9331 28.8567 25.5578C26.5884 29.172 23.0759 32.2796 18.9967 34.1253C14.9175 32.2796 11.4047 29.172 9.13638 25.5578C6.86121 21.9331 5.66399 17.712 5.36865 12.2737C5.23604 9.83447 5.31492 6.95999 5.38418 5.10036C10.023 4.29973 14.5936 3.92383 18.9967 3.92383ZM18.9967 4.44773C14.656 4.44773 10.2491 4.8168 5.89195 5.54529C5.79629 8.3041 5.79629 10.4992 5.89133 12.2454C6.18139 17.591 7.35345 21.7328 9.57955 25.2792C11.8053 28.8253 15.1429 31.7545 18.9967 33.5491C22.8501 31.7545 26.188 28.8253 28.4138 25.2792C30.6399 21.7328 31.8117 17.591 32.1021 12.2454C32.1971 10.4992 32.1971 8.3041 32.1014 5.54529C27.7443 4.8168 23.3371 4.44773 18.9967 4.44773ZM18.9587 20.3284C18.9587 20.3284 19.0445 20.8374 19.0705 20.9851C19.0851 21.0687 19.0882 21.0911 19.0671 21.1732C18.9986 21.4372 18.6822 22.8284 18.4289 24.2525L18.3894 24.4775C18.2859 25.0774 18.1965 25.6728 18.1445 26.1822C18.1149 26.4716 18.1246 26.541 18.201 26.7978C18.4174 27.5235 19.2181 29.4195 19.3718 29.7653C19.3889 29.8035 19.3991 29.8436 19.4041 29.885L19.4619 30.3321C19.2053 29.9443 17.8115 27.3802 17.264 25.9602C17.1994 25.7929 17.187 25.7105 17.2584 25.403C17.6392 23.7716 18.6693 20.9994 18.9587 20.3284ZM16.9261 16.3875C16.9261 16.3875 17.0332 16.7347 17.1365 17.1118L17.1726 17.2457C17.2379 17.4914 17.2961 17.7339 17.3171 17.8874C17.3373 18.0351 17.3339 18.0749 17.2814 18.2163C17.1541 18.5552 16.9199 19.1003 16.6701 19.6575L16.5623 19.8965C16.2558 20.5726 15.9455 21.2257 15.7947 21.5084C15.7205 21.6477 15.6506 21.7385 15.5109 21.8806C15.1919 22.2055 14.5814 22.8196 14.2034 23.1631C14.0662 23.2881 14.0292 23.3948 14.0013 23.5564C13.9562 23.8161 13.9115 24.2591 13.8991 24.488C13.8882 24.6891 13.9208 24.7833 14.0329 24.9826C14.6991 26.1719 16.923 28.908 17.5566 29.4826C17.6025 29.5243 17.6361 29.5523 17.733 29.6166C17.8261 29.6788 18.1299 29.8759 18.1299 29.8759C18.142 29.8843 18.1522 29.8955 18.16 29.9083L18.2699 30.102C18.2699 30.102 18.2596 30.0969 18.2411 30.0877L18.1936 30.0641C18.1554 30.045 18.105 30.0199 18.047 29.9909L17.9058 29.9201C17.6893 29.8114 17.4313 29.6807 17.2957 29.6076C17.2398 29.5775 17.1873 29.542 17.1385 29.5013C16.3966 28.8844 14.123 26.2214 13.4544 25.1095C13.2876 24.8318 13.2705 24.742 13.2929 24.4793C13.3348 23.9902 13.3997 23.3752 13.4565 23.1056C13.491 22.943 13.5267 22.8475 13.6513 22.7039C14.0697 22.2217 14.5802 21.5852 15.0776 20.932L15.2525 20.701C16.0063 19.6991 16.7007 18.6962 16.96 18.1853C17.0193 18.069 17.0243 18.0285 17.0255 17.9188C17.0289 17.6004 16.9274 16.9804 16.9007 16.8237C16.8966 16.7992 16.8954 16.7743 16.8975 16.7494L16.9261 16.3875ZM23.1313 15.7899L23.3235 15.8736C23.3803 15.8981 23.4322 15.9342 23.475 15.979C24.6536 17.2102 25.5962 18.4869 25.785 18.8233C25.8213 18.888 25.8462 18.9526 25.8552 19.0266C26.067 20.8222 25.885 22.7244 25.4524 24.3792C25.4133 24.5284 25.3695 24.6049 25.226 24.7128C24.7641 25.0605 24.0747 25.615 23.389 26.1803L23.1729 26.359C22.347 27.0435 21.5623 27.7136 21.2294 28.0219C21.1458 28.0997 21.0729 28.1874 21.0132 28.2847C20.8571 28.5387 20.6187 28.9759 20.5016 29.1928L20.4689 29.2536C20.4455 29.2973 20.4319 29.3228 20.4319 29.3228C20.2766 28.9836 19.9381 28.1559 19.8219 27.8214C19.784 27.7123 19.7772 27.6551 19.8173 27.5089C20.0067 26.8153 20.902 24.7986 21.0763 24.4339L21.0766 24.5831C21.0766 24.6049 21.0732 24.6264 21.0663 24.6469C20.9878 24.8854 20.5064 26.4748 20.4086 27.1641C20.3868 27.3174 20.3887 27.3587 20.4086 27.5092C20.4514 27.831 20.6437 28.4212 20.6437 28.4212C20.6437 28.4212 20.7576 28.183 20.8638 28.0219C20.916 27.943 20.9474 27.905 21.0325 27.8205C21.4629 27.3943 22.1973 26.7356 22.9621 26.0732L23.2329 25.8396C23.8204 25.3349 24.407 24.8437 24.8704 24.4684C24.9909 24.3708 25.0359 24.3055 25.0626 24.1202C25.1956 23.2073 25.2341 21.5687 25.1539 20.3764C25.1387 20.1512 25.0657 19.9336 24.939 19.7467C24.6483 19.3167 24.3008 18.9097 23.7738 18.3871C23.6987 18.3121 23.6474 18.2164 23.6282 18.1119C23.4744 17.2911 23.1313 15.7899 23.1313 15.7899ZM13.1647 17.6891C13.238 17.6654 13.3159 17.6626 13.3904 17.6807C13.7265 17.7615 14.4377 17.9359 14.9752 18.0737C15.0507 18.0929 15.1448 18.1635 15.1849 18.2304L15.3019 18.4253C15.3429 18.4937 15.3457 18.5777 15.3094 18.6486C15.2117 18.8382 15.0723 19.095 14.925 19.3597L14.8135 19.5589C14.6083 19.9234 14.404 20.275 14.288 20.46C14.2116 20.5822 14.169 20.6363 14.033 20.6845C13.5041 20.8707 12.8473 21.0933 12.4569 21.2199C12.3771 21.2457 12.3501 21.2942 12.3656 21.3828C12.3935 21.5442 12.4836 22.092 12.5181 22.2518C12.5308 22.3109 12.578 22.3579 12.6656 22.3411C12.8963 22.2972 13.5106 22.1467 13.5106 22.1467C13.5106 22.1467 13.3296 22.3143 13.2212 22.4132C13.2013 22.4319 13.1783 22.4455 13.1526 22.4539C12.9852 22.5099 12.5765 22.6246 12.4491 22.6526C12.3498 22.6741 12.2864 22.6349 12.2609 22.5223C12.2609 22.5223 12.0867 21.7799 12.0237 21.5274C12.0137 21.4888 12.0038 21.4556 11.9917 21.4176C11.9445 21.2715 11.8311 20.9842 11.7671 20.8337C11.7597 20.8163 11.756 20.7977 11.7563 20.7784C11.7581 20.6064 11.7898 20.2228 11.7898 20.2228C11.7898 20.2228 12.1659 20.5757 12.3479 20.7031C12.3889 20.732 12.4134 20.738 12.4637 20.7252C12.7137 20.6608 13.2886 20.4706 13.6041 20.3524C13.6762 20.3254 13.7392 20.28 13.7883 20.2206C14.1147 19.826 14.524 19.2123 14.7603 18.7493C14.7929 18.6856 14.7991 18.6125 14.7787 18.5441L14.7277 18.3762C14.7128 18.3271 14.6609 18.2717 14.6131 18.2534C14.0569 18.0416 13.6184 17.8843 13.1032 17.7086L13.1647 17.6891ZM24.165 12.9103C24.2873 12.8652 24.4215 12.8683 24.5417 12.919C25.474 13.3107 27.0417 14.2323 27.9131 14.8815C27.9973 14.9443 28.0308 14.9875 28.0529 15.0889C28.2575 16.0204 28.3352 17.4603 28.2063 18.6726C28.197 18.7597 28.1796 18.8119 28.1342 18.9049C27.5821 20.0351 26.9606 21.0987 26.3066 21.9192L26.3079 21.9058C26.3164 21.8184 26.3634 21.3258 26.3659 21.0592C26.3662 21.0291 26.3802 21.0014 26.4041 20.9831C26.5255 20.8885 26.6923 20.7542 26.7867 20.6724C26.8327 20.6326 26.8581 20.6028 26.8821 20.5642C27.1485 20.1333 27.6249 19.231 27.8168 18.6881C27.8637 18.5557 27.8824 18.4155 27.8709 18.2752C27.8094 17.5188 27.6908 16.4706 27.514 15.7866C27.4839 15.67 27.4069 15.5715 27.2998 15.5164C27.1473 15.4381 26.8482 15.3016 26.1671 15.0283C26.0727 14.9903 25.9845 14.9378 25.9069 14.8725C25.4603 14.4969 24.7622 13.9338 24.3277 13.6098C24.2007 13.515 24.0386 13.4805 23.8839 13.5156C23.5674 13.5875 23.1646 13.6876 22.9379 13.7491C22.8609 13.77 22.8305 13.7718 22.751 13.7625C22.7096 13.7577 22.6561 13.7524 22.5998 13.7473L22.5147 13.7398C22.4157 13.7314 22.3228 13.7242 22.2864 13.7214L22.2702 13.7202C23.0091 13.3729 23.7199 13.0732 24.165 12.9103ZM14.3077 19.0247C14.0766 19.4053 13.8005 19.8095 13.5918 20.062C13.5645 20.0949 13.5282 20.1204 13.4869 20.136C13.2586 20.2215 12.8782 20.3502 12.598 20.4357L14.3077 19.0247ZM11.2539 18.5251L11.1176 19.4669L10.6539 18.9221C10.7384 18.739 10.9853 18.5661 11.2539 18.5251ZM13.7514 13.1931L13.6247 13.3492C13.6176 13.3561 13.6108 13.3626 13.6036 13.3697C13.4921 13.4521 13.0229 13.8119 12.8958 13.9126C12.8598 13.9412 12.8455 13.9661 12.8371 14.0112C12.8086 14.1704 12.7611 14.4729 12.7471 14.6405C12.743 14.6896 12.7219 14.7139 12.6719 14.7341C12.4542 14.8227 12.1962 14.916 11.9875 14.9996C11.9427 15.0173 11.9303 15.0242 11.9039 15.0444C11.8831 15.0605 11.6058 15.3083 11.6058 15.3083C11.6058 15.3083 12.2086 15.1597 12.4297 15.1097C12.4825 15.0979 12.5052 15.101 12.5539 15.124C12.5996 15.1451 12.6757 15.1753 12.7157 15.1899C12.7772 15.2126 12.8098 15.2117 12.8778 15.1967C13.1269 15.1411 13.5458 15.0416 13.7688 14.9834C13.8847 14.9533 13.948 14.9219 14.0462 14.8532C14.153 14.7788 14.4235 14.5758 14.4235 14.5758C14.4235 14.5758 14.4185 14.6116 14.4148 14.6315C14.412 14.6486 14.4058 14.6582 14.3946 14.6716C14.3396 14.7378 14.2434 14.8457 14.1955 14.8951C14.0859 15.0086 14.0204 15.049 13.8828 15.1066C13.2493 15.3708 12.1666 15.7813 11.3545 16.0626C11.3014 16.0813 11.2784 16.0965 11.239 16.137C11.1961 16.1805 11.139 16.2439 11.139 16.2439C11.139 16.2439 11.8011 16.2921 12.0033 16.3154C12.0688 16.3229 12.1157 16.3443 12.1657 16.3876C12.3319 16.5306 12.8819 17.0974 13.0465 17.2942C13.0465 17.2942 11.4828 17.5545 10.7583 17.7345C10.6688 17.7566 10.6241 17.8135 10.6039 17.8853C10.544 18.0961 10.4027 18.7739 10.4027 18.7739C10.4027 18.7739 10.3523 18.7577 10.2822 18.7173C10.234 18.6896 10.2095 18.6666 10.1567 18.6107C9.98527 18.4294 9.70359 18.0824 9.56818 17.8812C9.52843 17.8218 9.51166 17.7463 9.56135 17.6857C9.70825 17.5047 10.0033 17.1745 10.166 17.0047C10.1834 16.9864 10.2055 16.9544 10.2287 16.9084C10.2835 16.7995 10.3557 16.5237 10.3808 16.4241L10.3889 16.3919L10.3899 16.3876C10.3899 16.3876 10.3884 16.3885 10.3856 16.3903L10.3558 16.409C10.3156 16.4344 10.2505 16.4753 10.2225 16.493C10.1806 16.5197 10.1691 16.5312 10.1517 16.5679C10.1253 16.6232 10.0791 16.7106 10.044 16.7712C10.0325 16.7911 10.0017 16.8219 9.98527 16.8347C9.7775 16.9935 9.548 17.1642 9.38464 17.2793C9.37346 17.2871 9.35917 17.2836 9.34955 17.2743C9.32874 17.2535 9.24147 17.1543 9.22594 17.131C9.2129 17.1114 9.20698 17.093 9.20698 17.0694C9.20669 17.0281 9.21073 16.9553 9.21476 16.9012C9.21973 16.8372 9.23806 16.8067 9.31601 16.7258C9.40327 16.6354 9.49831 16.5402 9.59831 16.4426C9.84334 16.2361 10.462 15.7337 11.5666 14.9446C11.5875 14.9296 11.6064 14.9122 11.6216 14.8914C11.7378 14.7347 12.0673 14.3069 12.1486 14.2052C12.1601 14.1909 12.1729 14.1775 12.1875 14.166C12.3176 14.0631 12.3819 14.0186 12.5139 13.9353C12.8216 13.7413 13.4176 13.3875 13.7514 13.1931ZM20.4845 12.8432C20.5307 12.8351 20.5783 12.8416 20.6208 12.8619L20.9435 13.0164C20.9752 13.0316 20.9984 13.0605 21.0068 13.0954C21.0506 13.28 21.1043 13.5247 21.1404 13.7327C21.155 13.8192 21.1388 13.9075 21.095 13.9837C20.9615 14.2159 20.6873 14.6338 20.5338 14.8583C20.4997 14.9087 20.4956 14.9696 20.5062 15.0296C20.5758 15.4145 20.8658 16.7586 20.8658 16.7586L20.6832 16.5923C20.6469 16.5587 20.623 16.5233 20.6075 16.477C20.4776 16.0967 20.2348 15.3023 20.123 14.9158C20.105 14.8521 20.1186 14.784 20.1606 14.7333C20.3509 14.502 20.6283 14.132 20.7904 13.8975C20.8357 13.8316 20.8506 13.7589 20.8239 13.7045C20.7866 13.628 20.7239 13.5117 20.6637 13.4063C20.6475 13.3771 20.6205 13.3553 20.5885 13.3447L20.3696 13.2744C20.3314 13.2623 20.2904 13.2629 20.2525 13.2766C19.7755 13.4498 19.1338 13.6995 18.7413 13.8624C18.6838 13.8863 18.6602 13.8882 18.5907 13.8776C18.477 13.8608 18.1459 13.8015 17.9835 13.771C17.9543 13.7654 17.9397 13.7324 17.9546 13.7066L18.1472 13.3727C18.1733 13.3276 18.2164 13.2956 18.2674 13.2841C18.8866 13.1429 19.7056 12.9806 20.4845 12.8432ZM13.6319 14.3767C13.6614 14.3742 13.6893 14.3907 13.7008 14.4178C13.7396 14.5083 13.7291 14.6093 13.6915 14.6957C13.6769 14.7309 13.6319 14.7651 13.5949 14.7732L13.2859 14.8419C13.2673 14.8459 13.2502 14.831 13.2514 14.812L13.2803 14.4489C13.2825 14.4243 13.3017 14.4047 13.3263 14.4028L13.6319 14.3767ZM17.1479 12.0433C17.1836 12.043 17.206 12.0815 17.1883 12.1123L16.4349 13.411C16.3929 13.4875 16.3228 13.5444 16.2395 13.5696L14.8268 14.0121C14.6628 14.0618 14.5243 14.0885 14.3535 14.1016C14.0401 14.1252 13.1094 14.1545 13.1094 14.1545L13.1299 14.1103C13.1395 14.0895 13.1566 14.073 13.1777 14.064L13.6181 13.8768C13.651 13.8628 13.6799 13.8414 13.7019 13.8137L14.3821 12.9754C14.4184 12.9307 14.4659 12.8878 14.5165 12.861C14.9659 12.6244 15.765 12.269 16.3246 12.0818C16.3774 12.0641 16.4485 12.0529 16.5041 12.0523L17.1479 12.0433ZM16.3926 10.5351C17.9517 10.398 20.0613 10.3607 22.0765 10.5134C22.1911 10.5221 22.3026 10.5491 22.4085 10.5939C23.0688 10.8719 24.2402 11.48 25.5427 12.2259C25.6002 12.2589 25.6542 12.2974 25.7039 12.3413C26.0489 12.6457 26.9231 13.5411 26.9231 13.5411L26.6505 13.487C26.6123 13.4796 26.5766 13.4646 26.5443 13.4429C25.9927 13.0719 25.1874 12.5891 24.5126 12.2486C24.4324 12.2085 24.3458 12.1827 24.2567 12.1734C23.9284 12.1382 23.4846 12.1075 23.1942 12.0956C23.0511 12.0897 22.9536 12.0658 22.8135 11.9946C22.5458 11.8587 21.8973 11.5643 21.5744 11.4408C21.4362 11.388 21.3657 11.3756 21.2302 11.3777C20.6753 11.3858 19.411 11.4262 18.7653 11.4663C18.743 11.4676 18.7215 11.4667 18.6998 11.4632L18.392 11.415C19.2647 11.2646 21.4219 11.0721 22.3147 11.0251L21.9514 10.9036C21.8812 10.8803 21.8082 10.8678 21.734 10.866C21.5401 10.8613 21.1091 10.8527 20.5496 10.852L20.3585 10.852C19.511 10.8537 18.4206 10.8745 17.415 10.9502C17.3271 10.9567 17.2414 10.9779 17.1607 11.0136C16.7544 11.1923 15.7639 11.7299 14.7705 12.2822L14.5499 12.4051C14.293 12.5483 14.0389 12.6908 13.7976 12.8266C13.7976 12.8266 13.9215 12.6671 13.9454 12.636C13.9665 12.609 13.9731 12.604 14.0016 12.5854C14.0415 12.5592 14.1778 12.4693 14.3152 12.3781L14.417 12.3104C14.4995 12.2554 14.5732 12.206 14.6147 12.1774C14.6352 12.1634 14.6482 12.1535 14.674 12.1342C14.9731 11.9085 15.4451 11.5105 15.7265 11.2639C15.7902 11.2083 15.8442 11.1436 15.8886 11.0715C15.9796 10.9241 16.079 10.7643 16.1402 10.6757C16.1923 10.5989 16.2815 10.5451 16.3926 10.5351ZM9.75362 6.94898C10.1387 6.90918 10.3539 7.05905 10.3539 7.44925V7.66503C10.3539 8.06426 10.1387 8.22563 9.75362 8.26574C9.22101 8.32139 8.68839 8.38171 8.15671 8.447V9.03682C8.04522 9.05051 7.93342 9.06419 7.82193 9.07849V7.17222C8.4651 7.09076 9.10889 7.01645 9.75362 6.94898ZM27.6268 6.88717C28.4759 6.96987 29.3244 7.06502 30.1713 7.17197V7.47948C29.8051 7.43315 29.4383 7.389 29.0713 7.34733V8.94641C28.9598 8.93366 28.8483 8.92122 28.7362 8.90879V7.30971C28.3669 7.26898 27.9967 7.23074 27.6268 7.19467V6.88717ZM13.5218 6.63663V6.94382C12.8233 6.98704 12.1252 7.03834 11.4277 7.09772V7.56722C12.0482 7.51405 12.669 7.46772 13.2901 7.42792V7.73543C12.669 7.77523 12.0482 7.82155 11.4277 7.87441V8.38961C12.1252 8.32991 12.8233 8.27861 13.5218 8.2357V8.54289C12.714 8.59264 11.9069 8.65358 11.1 8.7254V6.81883C11.9069 6.747 12.714 6.68637 13.5218 6.63663ZM24.3849 7.15882C24.3849 6.7313 24.5967 6.64331 25.0741 6.67565C25.4933 6.70456 25.912 6.73597 26.3309 6.77079C26.7455 6.80499 27.0191 6.92159 27.0191 7.35781V8.20912C27.0191 8.63726 26.7828 8.71437 26.3309 8.67706C25.912 8.64254 25.4933 8.61083 25.0741 8.58222C24.6175 8.55144 24.3849 8.46314 24.3849 8.01013V7.15882ZM21.1367 6.49388C21.9454 6.51316 22.7538 6.54363 23.5622 6.58529V6.89248C22.8635 6.85673 22.1644 6.82906 21.465 6.80978V7.27896C22.0871 7.29637 22.7088 7.32 23.3302 7.35016V7.65767C22.7088 7.62751 22.0871 7.60357 21.465 7.58646V8.10135C22.1644 8.12063 22.8635 8.1483 23.5622 8.18437V8.49156C22.7538 8.45021 21.9454 8.41974 21.1367 8.40015V6.49388ZM16.9287 6.4922V7.87115C16.9287 8.30737 16.6998 8.40313 16.2386 8.41744C15.837 8.42987 15.4355 8.4448 15.0339 8.46283C14.606 8.48211 14.3445 8.40065 14.3445 7.96877V6.58983L14.6724 6.57304V8.01013C14.6724 8.0975 14.7473 8.1687 14.8467 8.16403C15.3731 8.13947 15.8992 8.11957 16.4256 8.10434C16.5256 8.10154 16.592 8.02505 16.592 7.93768V6.5006C16.7041 6.49749 16.8162 6.49469 16.9287 6.4922ZM24.8874 6.97071C24.7877 6.96387 24.7129 7.03383 24.7129 7.13364V8.07635C24.7129 8.16372 24.7877 8.25545 24.8874 8.26229C25.4312 8.29835 25.9744 8.33939 26.5176 8.38541C26.6045 8.39287 26.6915 8.31297 26.6915 8.22591V7.28288C26.6915 7.18338 26.6045 7.10099 26.5176 7.09353C25.9744 7.04751 25.4312 7.00647 24.8874 6.97071ZM18.3789 6.47031C18.9817 6.46596 19.5845 6.46814 20.187 6.47622V6.78341C19.5429 6.77502 18.8985 6.77315 18.254 6.77844C18.1668 6.77937 18.0795 6.85493 18.0795 6.9423V7.89745C18.0795 7.98482 18.1668 8.07125 18.254 8.07032C18.832 8.06535 19.4096 8.06628 19.9876 8.07281V7.55761C19.6522 7.55388 19.3168 7.55201 18.9817 7.55233V7.24482C19.4264 7.24482 19.8711 7.24824 20.3159 7.25477V8.38435C19.691 8.37503 19.0662 8.37254 18.4413 8.37627C17.9839 8.37938 17.7513 8.3004 17.7513 7.85579V7.025C17.7513 6.60992 17.959 6.47342 18.3789 6.47031ZM9.87891 7.24571L9.853 7.24622C9.28716 7.30468 8.72162 7.36841 8.15671 7.43775V8.1395C8.72162 8.07048 9.28716 8.00643 9.853 7.94829C9.93964 7.93896 10.0266 7.85967 10.0266 7.77666V7.39049C10.0266 7.30312 9.93964 7.2372 9.853 7.24622L9.87891 7.24571Z" fill="black"/>
</svg>
