<svg width="38" height="38" viewBox="0 0 38 38" fill="none" xmlns="http://www.w3.org/2000/svg">
<path d="M17.9188 4.75474C17.5473 5.44888 12.5393 14.8172 10.3821 18.8423C10.3074 18.9815 10.3131 19.0821 10.3862 19.2184C12.4996 23.1624 16.783 31.1632 16.8272 31.2379C16.8715 31.1637 21.1548 23.1624 23.2683 19.219C23.3414 19.0827 23.3477 18.982 23.2723 18.8429C22.0629 16.5937 20.8615 14.3399 19.6521 12.0907C19.5745 11.9469 19.5693 11.8394 19.6498 11.6944C19.9822 11.0952 20.3008 10.4885 20.6378 9.8593C20.6856 9.94038 23.8906 15.9231 25.4623 18.8544C25.5284 18.9774 25.5342 19.0695 25.4663 19.1966C22.979 23.8382 20.4958 28.4821 18.0154 33.1277C17.9493 33.2519 17.882 33.3083 17.7313 33.306C17.1171 33.2956 16.5023 33.2985 15.8881 33.3042C15.7742 33.3054 15.7139 33.2692 15.6604 33.1679C13.1673 28.4993 10.672 23.8318 8.17377 19.1661C8.12201 19.0689 8.11741 18.9964 8.17089 18.8958C10.6697 14.2289 13.1645 9.5614 15.6632 4.89564C15.6949 4.83698 15.7691 4.76164 15.8243 4.76107C16.5098 4.75129 17.1953 4.75474 17.9188 4.75474Z" fill="black"/>
<path d="M20.7598 7.6129C19.6165 9.74363 16.465 15.6303 14.7472 18.8365C14.6741 18.9734 14.669 19.074 14.7437 19.2126C15.9531 21.4624 17.1545 23.7156 18.364 25.9648C18.4416 26.1091 18.4456 26.2161 18.3651 26.361C18.0327 26.9603 17.7141 27.567 17.3765 28.1967C17.3317 28.1208 14.1272 22.1375 12.552 19.2005C12.4859 19.0774 12.4807 18.9854 12.5486 18.8583C15.0353 14.2173 17.5186 9.5734 19.999 4.92777C20.0657 4.80298 20.1335 4.74777 20.283 4.75007C20.8973 4.76042 21.512 4.75755 22.1262 4.75179C22.2407 4.75064 22.2999 4.78803 22.354 4.88867C24.8476 9.5573 27.3429 14.2248 29.8412 18.8905C29.8935 18.9877 29.8969 19.0608 29.8435 19.1608C27.3452 23.8266 24.8505 28.4941 22.3517 33.1598C22.32 33.2185 22.2459 33.2933 22.1906 33.2938C21.5051 33.303 20.8196 33.2996 20.1013 33.2996C20.1485 33.2076 25.1587 23.8306 27.6334 19.212C27.7081 19.0728 27.7024 18.9722 27.6288 18.8359C25.5153 14.8919 21.232 6.89115 21.1877 6.81697C21.1796 6.83077 21.0226 7.12234 20.7598 7.6129Z" fill="black"/>
</svg>
