<svg width="35" height="35" viewBox="0 0 35 35" fill="none" xmlns="http://www.w3.org/2000/svg">
<circle cx="17.5" cy="17.5" r="17.5" fill="white"/>
<path d="M11.374 12.9033C12.7418 11.6326 14.8816 11.7114 16.1523 13.0791L16.1582 13.0859L16.4414 13.3848L17.167 14.1523L17.8936 13.3848L18.1768 13.0859L18.1816 13.0801C18.8222 12.3925 19.7195 12.0016 20.6592 12C21.5973 12.0017 22.4933 12.3918 23.1328 13.0781V13.0791C24.524 14.5796 24.524 16.8989 23.1328 18.3994L17.167 24.6924L11.2002 18.3994C9.80888 16.8987 9.8079 14.5788 11.1992 13.0781C11.2552 13.0179 11.3145 12.9606 11.375 12.9043L11.374 12.9033Z" fill="#262626" stroke="#262626" stroke-width="2"/>
</svg>
