<svg width="35" height="35" viewBox="0 0 35 35" fill="none" xmlns="http://www.w3.org/2000/svg">
<circle cx="17.5" cy="17.5" r="17.5" fill="white"/>
<path d="M19.0771 22.6167C19.0771 23.9329 20.1441 25 21.4604 25V25C22.7767 25 23.8438 23.9329 23.8438 22.6167V17.2015C23.8438 15.8852 22.7767 14.8182 21.4604 14.8182V14.8182C20.1441 14.8182 19.0771 15.8852 19.0771 17.2015V22.6167Z" stroke="#737373" stroke-width="2"/>
<path d="M10.8438 22.6167C10.8438 23.9329 11.9108 25 13.2271 25V25C14.5434 25 15.6104 23.9329 15.6104 22.6167V11.3833C15.6104 10.0671 14.5434 9 13.2271 9V9C11.9108 9 10.8438 10.0671 10.8438 11.3833V22.6167Z" stroke="#737373" stroke-width="2"/>
</svg>
