<svg width="168" height="49" viewBox="0 0 168 49" fill="none" xmlns="http://www.w3.org/2000/svg">
<path d="M16.359 -0.0078125C19.7245 -0.0078125 20.7819 2.38427 21.6605 4.77635C22.0328 5.7952 30.7742 29.5241 31.0423 30.2328C31.1167 30.4248 31.0721 30.7496 30.7593 30.8678C30.4466 30.9859 25.9046 32.743 25.6515 32.8316C25.3983 32.9202 25.1154 32.7873 25.026 32.5363C24.9367 32.2853 23.0454 27.1172 22.8369 26.5413C22.2115 26.5413 10.5065 26.5413 9.88108 26.5413C9.6726 27.1172 7.76645 32.3001 7.6771 32.5363C7.58775 32.7726 7.3197 32.935 7.05165 32.8316C6.78359 32.7283 2.22671 30.9711 1.95866 30.8678C1.69061 30.7644 1.57147 30.4691 1.67572 30.2328C2.00334 29.3469 10.6108 5.98716 11.0426 4.77635C11.8915 2.4138 12.9935 -0.0078125 16.359 -0.0078125ZM0.975803 42.4738C0.707752 42.4738 0.484375 42.6953 0.484375 42.9611V48.4983C0.484375 48.7788 0.707752 49.0003 0.975803 49.0003H31.7273C31.9954 49.0003 32.2187 48.7788 32.2187 48.4983V42.9611C32.2187 42.6805 31.9954 42.459 31.7273 42.459H0.975803V42.4738ZM16.3292 7.7443L11.951 20.7826H20.7819L16.3888 7.7443H16.3292ZM130.758 26.881C130.758 28.3575 129.939 29.3321 128.42 29.3321C127.824 29.3321 127.332 29.3321 126.543 29.1254V24.6513C126.886 24.5922 127.601 24.4889 128.42 24.5184C129.953 24.5775 130.758 25.2862 130.758 26.881ZM133.87 26.6595C133.87 23.9278 132.247 22.0377 128.851 22.0377C128.017 22.0377 127.437 22.1116 126.528 22.333V18.3905C127.094 18.3167 128.047 18.2429 129.105 18.2429C130.102 18.2429 131.368 18.3019 132.485 18.4348L132.559 16.1461C131.294 15.8656 129.462 15.6884 128.047 15.6884C126.647 15.6884 124.473 16.0428 123.431 16.3085V30.8678C125.039 31.4584 126.618 31.7242 128.241 31.7242C131.949 31.7389 133.87 29.7898 133.87 26.6595ZM98.5467 25.8621C98.5467 27.8998 97.7276 29.1992 96.3874 29.1992C95.8215 29.1992 95.5237 29.1697 94.8833 28.963V22.8794C95.5832 22.5545 95.9555 22.5545 96.5214 22.5545C97.8765 22.5545 98.5467 23.6472 98.5467 25.8621ZM88.316 25.9359C88.316 23.721 88.9862 22.5545 90.3264 22.5545C90.8923 22.5545 91.2646 22.5545 91.9645 22.8794V28.9777C91.3242 29.1844 91.0263 29.214 90.4604 29.214C88.9415 29.214 88.316 27.9736 88.316 25.9359ZM94.8833 35.076V31.104C95.2556 31.3255 96.0002 31.6504 97.2362 31.6504C99.7231 31.6504 101.54 29.6127 101.54 25.8769C101.54 21.8605 99.7231 20.1329 96.7448 20.1329C95.9853 20.1329 95.4939 20.2068 94.8833 20.5021V15.7622H91.9645V20.5021C91.354 20.2068 90.8476 20.1329 90.1031 20.1329C87.1247 20.1329 85.3079 21.9196 85.3079 25.9507C85.3079 29.6865 86.946 31.6651 89.6116 31.6651C90.8625 31.6651 91.6071 31.3403 91.9794 31.1188V35.0908H94.8833V35.076ZM72.7392 31.4584V20.8122C71.1309 20.3396 69.8949 20.1329 68.2866 20.1329C66.6783 20.1329 65.4721 20.3396 63.8638 20.8122V26.2608C63.8638 27.7374 63.834 28.1804 63.6702 28.6676C63.5063 29.0811 63.2979 29.5979 62.7022 29.9818L63.5063 31.6799C65.8592 31.0154 66.7379 30.0113 66.7379 26.7924V22.7908C67.5122 22.6727 67.676 22.6579 68.2866 22.6579C68.9121 22.6579 69.0461 22.6874 69.8205 22.7908V31.4732H72.7392V31.4584ZM108.792 29.1254C108.152 29.3469 107.72 29.3912 107.214 29.3912C106.171 29.3912 105.576 28.9777 105.576 27.9146C105.576 26.8071 106.32 26.438 107.78 26.438C108.122 26.438 108.479 26.497 108.643 26.5413V27.3387C108.643 28.1951 108.688 28.7562 108.792 29.1254ZM112.515 30.3952C111.741 29.2287 111.547 28.5495 111.547 27.0729V24.105C111.547 22.4955 111.354 21.9048 110.922 21.3142C110.326 20.4873 109.343 20.1329 107.512 20.1329C106.231 20.1329 104.95 20.2658 103.744 20.5759L104.176 22.7022C104.995 22.5841 105.859 22.4955 106.469 22.4955C108.405 22.4955 108.628 22.776 108.628 24.2083V24.7547C108.197 24.6365 107.705 24.5627 107.154 24.5627C104.22 24.5627 102.687 25.9802 102.687 28.3132C102.687 30.5134 104.34 31.7094 106.35 31.7094C107.095 31.7094 107.884 31.5765 108.494 31.3255C108.867 31.1631 109.03 31.0745 109.507 30.7496C109.805 31.1778 110.386 31.6061 110.624 31.6799L112.515 30.3952ZM141.078 29.1254C140.437 29.3469 140.005 29.3912 139.499 29.3912C138.457 29.3912 137.861 28.9777 137.861 27.9146C137.861 26.8071 138.606 26.438 140.065 26.438C140.422 26.438 140.765 26.497 140.929 26.5413V27.3387C140.929 28.1951 140.973 28.7562 141.078 29.1254ZM144.801 30.3952C144.026 29.2287 143.818 28.5495 143.818 27.0729V24.105C143.818 22.4955 143.639 21.9048 143.207 21.3142C142.611 20.4873 141.629 20.1329 139.797 20.1329C138.501 20.1329 137.25 20.2658 136.029 20.5759L136.461 22.7022C137.28 22.5841 138.144 22.4955 138.754 22.4955C140.69 22.4955 140.914 22.776 140.914 24.2083V24.7547C140.482 24.6365 140.005 24.5627 139.439 24.5627C136.521 24.5627 134.972 25.9802 134.972 28.3132C134.972 30.5134 136.625 31.7094 138.635 31.7094C139.38 31.7094 140.169 31.5765 140.78 31.3255C141.152 31.1631 141.316 31.0745 141.792 30.7496C142.09 31.1778 142.671 31.6061 142.909 31.6799L144.801 30.3952ZM81.0489 27.634C81.0489 28.7267 80.6617 29.465 79.2618 29.465C78.7853 29.465 78.5917 29.465 77.9811 29.2878V26.0984C78.7406 25.9507 78.8151 25.9212 79.2618 25.9212C80.6021 25.9359 81.0489 26.5856 81.0489 27.634ZM75.0475 20.3101L75.0326 30.8678C76.4175 31.4436 77.9514 31.7094 79.3065 31.7094C82.4189 31.7094 84.0868 30.1147 84.0868 27.4864C84.0868 25.109 82.6125 23.6324 79.8575 23.6324C79.1576 23.6324 78.7406 23.721 77.9811 23.913V20.2953H75.0475V20.3101ZM155.508 31.4584V20.4135H152.574V24.5922H149.253V20.4135H146.334V31.4584H149.253V26.9548H152.574V31.4584H155.508ZM167.525 31.4584C167.525 31.4584 165.932 28.077 165.53 27.3092C165.098 26.438 164.681 25.8473 163.788 25.6258V25.5816C164.398 25.4634 164.875 25.109 165.396 24.0016C165.902 22.9237 166.051 22.6874 166.334 22.4364C166.617 22.1854 167.019 22.274 167.019 22.274L167.168 20.2658C166.751 20.2068 166.289 20.2068 165.798 20.2363C165.009 20.2806 164.592 20.5021 164.204 20.9007C163.907 21.1961 163.698 21.639 163.43 22.1706C163.147 22.7317 162.939 23.1747 162.656 23.7506C162.373 24.3264 162.239 24.5922 161.479 24.5922H160.988V20.4135H158.054V31.4584H160.988V26.94H161.39C162.224 26.94 162.373 27.1467 162.82 28.0179C163.341 29.0663 164.324 31.4584 164.324 31.4584H167.525ZM58.4134 31.4584H61.7789L56.6859 16.0132C56.1498 15.836 55.4797 15.7179 54.7798 15.7179C54.0054 15.7179 53.7373 15.8213 53.1268 16.0132L47.7211 31.4584H50.9526C50.9526 31.4584 51.3844 30.0999 51.9206 28.4314H57.505C58.0113 30.0999 58.4134 31.4584 58.4134 31.4584ZM52.7396 25.8326C52.7396 25.8326 53.6778 22.7317 53.8118 22.2592C54.1841 21.0041 54.75 19.0255 54.75 19.0255H54.8393C54.8393 19.0255 55.3605 21.0779 55.7031 22.2444C55.8371 22.7022 56.7306 25.8473 56.7306 25.8473H52.7396V25.8326ZM117.489 24.0754C116.461 24.0754 115.628 24.9023 115.628 25.9212C115.628 26.9548 116.461 27.7817 117.489 27.7817C118.517 27.7817 119.35 26.9548 119.35 25.9212C119.35 24.9171 118.517 24.0754 117.489 24.0754Z" fill="#E52713"/>
</svg>
