<svg width="202" height="32" viewBox="0 0 202 32" fill="none" xmlns="http://www.w3.org/2000/svg">
<path d="M90.4151 9.75406L94.6282 6.64502H80.5234V25.2688H94.6282V22.1597H84.5534V17.4047H93.1627V14.2957H84.5534V9.75406H90.4151Z" fill="#21A038"/>
<path d="M69.8678 13.8994H64.983V9.75406H72.7986L77.0117 6.64502H60.9531V25.2688H69.3488C74.0504 25.2688 76.7675 23.1351 76.7675 19.4165C76.7675 15.8502 74.3251 13.8994 69.8678 13.8994ZM69.1961 22.1597H64.983V17.0085H69.1961C71.7606 17.0085 72.9513 17.8619 72.9513 19.5993C72.9513 21.3367 71.669 22.1597 69.1961 22.1597Z" fill="#21A038"/>
<path d="M106.046 6.64502H98.3828V25.2688H102.413V19.9956H106.076C110.961 19.9956 114.014 17.4352 114.014 13.3203C114.014 9.2054 110.961 6.64502 106.046 6.64502ZM105.954 16.8866H102.382V9.75406H105.954C108.549 9.75406 109.954 11.0342 109.954 13.3203C109.954 15.6064 108.549 16.8866 105.954 16.8866Z" fill="#21A038"/>
<path d="M54.0577 21.2455C52.9892 21.8246 51.7985 22.1294 50.5773 22.1294C46.9443 22.1294 44.3188 19.5386 44.3188 15.9723C44.3188 12.4061 46.9443 9.81521 50.5773 9.81521C51.8901 9.78473 53.1724 10.2115 54.2409 10.9735L57.1412 8.83983L56.958 8.65694C55.2789 7.16339 53.0197 6.40137 50.4552 6.40137C47.677 6.40137 45.1431 7.34627 43.3113 9.05319C41.4795 10.8211 40.4415 13.29 40.5026 15.8504C40.472 18.4413 41.4795 20.9407 43.3113 22.7695C45.2347 24.5679 47.7991 25.5738 50.4247 25.5128C53.325 25.5128 55.859 24.5069 57.5686 22.6781L54.9736 20.7578L54.0577 21.2455Z" fill="#21A038"/>
<path d="M162.47 6.6755V25.2992H166.5V17.6791H175.078V25.2992H179.108V6.6755H175.078V14.3262H166.5V6.6755H162.47ZM155.539 25.2992H159.783L151.906 6.6755H147.815L139.786 25.2992H143.847L145.465 21.5501H154.013L155.539 25.2992ZM146.686 18.4411L149.8 10.9733L152.731 18.4411H146.686ZM188.145 17.7705H190.649L196.816 25.2688H202.006L193.763 15.6368L200.968 6.64502H196.358L190.374 14.631H188.145V6.64502H184.115V25.2688H188.145V17.7705ZM126.475 13.9299V9.78454H137.008V6.6755H122.445V25.2992H130.841C135.543 25.2992 138.26 23.1656 138.26 19.4469C138.26 15.8807 135.817 13.9299 131.36 13.9299H126.475ZM126.475 22.1902V17.039H130.688C133.253 17.039 134.443 17.8924 134.443 19.6298C134.443 21.3672 133.192 22.2207 130.688 22.2207H126.475V22.1902Z" fill="#21A038"/>
<path d="M27.8917 6.52344C28.6244 7.46834 29.235 8.50469 29.754 9.60199L15.6493 19.9959L9.72656 16.2773V11.8271L15.6188 15.5153L27.8917 6.52344Z" fill="#21A038"/>
<path d="M3.7126 15.9722C3.7126 15.7588 3.7126 15.5759 3.74313 15.3626L0.171155 15.1797C0.171155 15.4235 0.140625 15.6979 0.140625 15.9417C0.140625 20.209 1.88082 24.0801 4.68955 26.8843L7.22351 24.3544C5.05591 22.2207 3.7126 19.2641 3.7126 15.9722Z" fill="url(#paint0_linear_1565_27582)"/>
<path d="M15.6171 4.0848C15.8308 4.0848 16.014 4.0848 16.2277 4.11529L16.4109 0.549035C16.1667 0.549035 15.8919 0.518555 15.6477 0.518555C11.3735 0.518555 7.49623 2.25596 4.6875 5.06019L7.22146 7.59009C9.35854 5.42596 12.3505 4.0848 15.6171 4.0848Z" fill="url(#paint1_linear_1565_27582)"/>
<path d="M15.6219 27.8598C15.4082 27.8598 15.225 27.8598 15.0113 27.8293L14.8281 31.3955C15.0724 31.3955 15.3471 31.426 15.5914 31.426C19.8655 31.426 23.7428 29.6886 26.5515 26.8844L24.0176 24.3545C21.8805 26.5491 18.9191 27.8598 15.6219 27.8598Z" fill="url(#paint2_linear_1565_27582)"/>
<path d="M22.3337 6.1577L25.3562 3.93261C22.7001 1.79895 19.3113 0.488281 15.6172 0.488281V4.05453C18.1206 4.08501 20.4409 4.84703 22.3337 6.1577Z" fill="url(#paint3_linear_1565_27582)"/>
<path d="M31.1275 15.973C31.1275 15.0281 31.0359 14.1136 30.8833 13.1992L27.5555 15.6682C27.5555 15.7596 27.5555 15.8815 27.5555 15.973C27.5555 19.4783 26.029 22.6178 23.6172 24.7819L26.029 27.4337C29.1431 24.6295 31.1275 20.5146 31.1275 15.973Z" fill="#21A038"/>
<path d="M15.6198 27.8598C12.1089 27.8598 8.96432 26.3357 6.79671 23.9277L4.14062 26.3357C6.97989 29.4752 11.0709 31.426 15.6198 31.426V27.8598Z" fill="url(#paint4_linear_1565_27582)"/>
<path d="M7.65093 7.16355L5.23908 4.51172C2.09452 7.34643 0.140625 11.4309 0.140625 15.9725H3.7126C3.7126 12.4977 5.23908 9.32768 7.65093 7.16355Z" fill="url(#paint5_linear_1565_27582)"/>
<defs>
<linearGradient id="paint0_linear_1565_27582" x1="4.32006" y1="26.4504" x2="0.67449" y2="15.9295" gradientUnits="userSpaceOnUse">
<stop offset="0.1444" stop-color="#F2E913"/>
<stop offset="0.3037" stop-color="#E7E518"/>
<stop offset="0.5823" stop-color="#CADB26"/>
<stop offset="0.891" stop-color="#A3CD39"/>
</linearGradient>
<linearGradient id="paint1_linear_1565_27582" x1="5.7057" y1="4.64672" x2="14.9692" y2="1.12221" gradientUnits="userSpaceOnUse">
<stop offset="0.0592" stop-color="#0FA8E0"/>
<stop offset="0.5385" stop-color="#0099F9"/>
<stop offset="0.9234" stop-color="#0291EB"/>
</linearGradient>
<linearGradient id="paint2_linear_1565_27582" x1="14.6184" y1="28.3839" x2="25.6591" y2="25.8926" gradientUnits="userSpaceOnUse">
<stop offset="0.1226" stop-color="#A3CD39"/>
<stop offset="0.2846" stop-color="#86C339"/>
<stop offset="0.8693" stop-color="#21A038"/>
</linearGradient>
<linearGradient id="paint3_linear_1565_27582" x1="14.8833" y1="2.77004" x2="24.065" y2="5.59846" gradientUnits="userSpaceOnUse">
<stop offset="0.0566" stop-color="#0291EB"/>
<stop offset="0.79" stop-color="#0C8ACB"/>
</linearGradient>
<linearGradient id="paint4_linear_1565_27582" x1="5.04885" y1="26.915" x2="14.9082" y2="30.5928" gradientUnits="userSpaceOnUse">
<stop offset="0.1324" stop-color="#F2E913"/>
<stop offset="0.2977" stop-color="#EBE716"/>
<stop offset="0.5306" stop-color="#D9E01F"/>
<stop offset="0.8023" stop-color="#BBD62D"/>
<stop offset="0.9829" stop-color="#A3CD39"/>
</linearGradient>
<linearGradient id="paint5_linear_1565_27582" x1="2.85856" y1="16.4032" x2="6.80072" y2="6.16467" gradientUnits="userSpaceOnUse">
<stop offset="0.0698" stop-color="#A3CD39"/>
<stop offset="0.2599" stop-color="#81C55F"/>
<stop offset="0.9216" stop-color="#0FA8E0"/>
</linearGradient>
</defs>
</svg>
