<svg width="202" height="32" viewBox="0 0 202 32" fill="none" xmlns="http://www.w3.org/2000/svg">
<path d="M90.4151 9.75357L94.6282 6.64453H80.5234V25.2683H94.6282V22.1592H84.5534V17.4042H93.1627V14.2952H84.5534V9.75357H90.4151Z" fill="#21A038"/>
<path d="M69.8678 13.899H64.983V9.75357H72.7986L77.0117 6.64453H60.9531V25.2683H69.3488C74.0504 25.2683 76.7675 23.1346 76.7675 19.416C76.7675 15.8497 74.3251 13.899 69.8678 13.899ZM69.1961 22.1592H64.983V17.008H69.1961C71.7606 17.008 72.9513 17.8615 72.9513 19.5989C72.9513 21.3363 71.669 22.1592 69.1961 22.1592Z" fill="#21A038"/>
<path d="M106.046 6.64453H98.3828V25.2683H102.413V19.9951H106.076C110.961 19.9951 114.014 17.4347 114.014 13.3198C114.014 9.20492 110.961 6.64453 106.046 6.64453ZM105.954 16.8861H102.382V9.75357H105.954C108.549 9.75357 109.954 11.0338 109.954 13.3198C109.954 15.6059 108.549 16.8861 105.954 16.8861Z" fill="#21A038"/>
<path d="M54.0577 21.2465C52.9892 21.8256 51.7985 22.1304 50.5773 22.1304C46.9443 22.1304 44.3188 19.5396 44.3188 15.9733C44.3188 12.4071 46.9443 9.81619 50.5773 9.81619C51.8901 9.78571 53.1724 10.2124 54.2409 10.9745L57.1412 8.84081L56.958 8.65792C55.2789 7.16436 53.0197 6.40234 50.4552 6.40234C47.677 6.40234 45.1431 7.34725 43.3113 9.05417C41.4795 10.8221 40.4415 13.291 40.5026 15.8514C40.472 18.4422 41.4795 20.9417 43.3113 22.7705C45.2347 24.5689 47.7991 25.5747 50.4247 25.5138C53.325 25.5138 55.859 24.5079 57.5686 22.6791L54.9736 20.7588L54.0577 21.2465Z" fill="#21A038"/>
<path d="M162.47 6.67501V25.2988H166.5V17.6786H175.078V25.2988H179.108V6.67501H175.078V14.3257H166.5V6.67501H162.47ZM155.539 25.2988H159.783L151.906 6.67501H147.815L139.786 25.2988H143.847L145.465 21.5496H154.013L155.539 25.2988ZM146.686 18.4406L149.8 10.9728L152.731 18.4406H146.686ZM188.145 17.77H190.649L196.816 25.2683H202.006L193.763 15.6364L200.968 6.64453H196.358L190.374 14.6305H188.145V6.64453H184.115V25.2683H188.145V17.77ZM126.475 13.9294V9.78405H137.008V6.67501H122.445V25.2988H130.841C135.543 25.2988 138.26 23.1651 138.26 19.4465C138.26 15.8802 135.817 13.9294 131.36 13.9294H126.475ZM126.475 22.1897V17.0385H130.688C133.253 17.0385 134.443 17.8919 134.443 19.6293C134.443 21.3667 133.192 22.2202 130.688 22.2202H126.475V22.1897Z" fill="#21A038"/>
<path d="M27.8917 6.52344C28.6244 7.46834 29.235 8.50469 29.754 9.60199L15.6493 19.9959L9.72656 16.2773V11.8271L15.6188 15.5153L27.8917 6.52344Z" fill="#21A038"/>
<path d="M3.7126 15.9722C3.7126 15.7588 3.7126 15.5759 3.74313 15.3626L0.171155 15.1797C0.171155 15.4235 0.140625 15.6979 0.140625 15.9417C0.140625 20.209 1.88082 24.0801 4.68955 26.8843L7.22351 24.3544C5.05591 22.2207 3.7126 19.2641 3.7126 15.9722Z" fill="url(#paint0_linear_1565_32621)"/>
<path d="M15.6171 4.08578C15.8308 4.08578 16.014 4.08578 16.2277 4.11626L16.4109 0.550012C16.1667 0.550012 15.8919 0.519531 15.6477 0.519531C11.3735 0.519531 7.49623 2.25693 4.6875 5.06117L7.22146 7.59107C9.35854 5.42693 12.3505 4.08578 15.6171 4.08578Z" fill="url(#paint1_linear_1565_32621)"/>
<path d="M15.6219 27.8608C15.4082 27.8608 15.225 27.8608 15.0113 27.8303L14.8281 31.3965C15.0724 31.3965 15.3471 31.427 15.5914 31.427C19.8655 31.427 23.7428 29.6896 26.5515 26.8854L24.0176 24.3555C21.8805 26.5501 18.9191 27.8608 15.6219 27.8608Z" fill="url(#paint2_linear_1565_32621)"/>
<path d="M22.3337 6.1577L25.3562 3.93261C22.7001 1.79895 19.3113 0.488281 15.6172 0.488281V4.05453C18.1206 4.08501 20.4409 4.84703 22.3337 6.1577Z" fill="url(#paint3_linear_1565_32621)"/>
<path d="M31.1275 15.973C31.1275 15.0281 31.0359 14.1136 30.8833 13.1992L27.5555 15.6682C27.5555 15.7596 27.5555 15.8815 27.5555 15.973C27.5555 19.4783 26.029 22.6178 23.6172 24.7819L26.029 27.4337C29.1431 24.6295 31.1275 20.5146 31.1275 15.973Z" fill="#21A038"/>
<path d="M15.6198 27.8598C12.1089 27.8598 8.96432 26.3357 6.79671 23.9277L4.14062 26.3357C6.97989 29.4752 11.0709 31.426 15.6198 31.426V27.8598Z" fill="url(#paint4_linear_1565_32621)"/>
<path d="M7.65093 7.16355L5.23908 4.51172C2.09452 7.34643 0.140625 11.4309 0.140625 15.9725H3.7126C3.7126 12.4977 5.23908 9.32768 7.65093 7.16355Z" fill="url(#paint5_linear_1565_32621)"/>
<defs>
<linearGradient id="paint0_linear_1565_32621" x1="4.32006" y1="26.4504" x2="0.67449" y2="15.9295" gradientUnits="userSpaceOnUse">
<stop offset="0.1444" stop-color="#F2E913"/>
<stop offset="0.3037" stop-color="#E7E518"/>
<stop offset="0.5823" stop-color="#CADB26"/>
<stop offset="0.891" stop-color="#A3CD39"/>
</linearGradient>
<linearGradient id="paint1_linear_1565_32621" x1="5.7057" y1="4.64769" x2="14.9692" y2="1.12318" gradientUnits="userSpaceOnUse">
<stop offset="0.0592" stop-color="#0FA8E0"/>
<stop offset="0.5385" stop-color="#0099F9"/>
<stop offset="0.9234" stop-color="#0291EB"/>
</linearGradient>
<linearGradient id="paint2_linear_1565_32621" x1="14.6184" y1="28.3849" x2="25.6591" y2="25.8936" gradientUnits="userSpaceOnUse">
<stop offset="0.1226" stop-color="#A3CD39"/>
<stop offset="0.2846" stop-color="#86C339"/>
<stop offset="0.8693" stop-color="#21A038"/>
</linearGradient>
<linearGradient id="paint3_linear_1565_32621" x1="14.8833" y1="2.77004" x2="24.065" y2="5.59846" gradientUnits="userSpaceOnUse">
<stop offset="0.0566" stop-color="#0291EB"/>
<stop offset="0.79" stop-color="#0C8ACB"/>
</linearGradient>
<linearGradient id="paint4_linear_1565_32621" x1="5.04885" y1="26.915" x2="14.9082" y2="30.5928" gradientUnits="userSpaceOnUse">
<stop offset="0.1324" stop-color="#F2E913"/>
<stop offset="0.2977" stop-color="#EBE716"/>
<stop offset="0.5306" stop-color="#D9E01F"/>
<stop offset="0.8023" stop-color="#BBD62D"/>
<stop offset="0.9829" stop-color="#A3CD39"/>
</linearGradient>
<linearGradient id="paint5_linear_1565_32621" x1="2.85856" y1="16.4032" x2="6.80072" y2="6.16467" gradientUnits="userSpaceOnUse">
<stop offset="0.0698" stop-color="#A3CD39"/>
<stop offset="0.2599" stop-color="#81C55F"/>
<stop offset="0.9216" stop-color="#0FA8E0"/>
</linearGradient>
</defs>
</svg>
