<svg width="76" height="76" viewBox="0 0 76 76" fill="none" xmlns="http://www.w3.org/2000/svg">
<path d="M73.4645 37.7466C73.4637 37.62 73.4605 37.4943 73.4588 37.368C73.4569 37.195 73.4548 37.0222 73.4511 36.8499C73.4502 36.8073 73.4488 36.7649 73.4477 36.7222C73.2059 26.3536 70.0353 17.0037 65.0741 10.333C60.6638 4.37178 54.8372 0.527992 48.3845 0C48.2579 0 48.2579 0 48.1311 0C48.0406 0.00801563 47.9508 0.0197422 47.8605 0.0293906C47.5299 0.011875 47.1982 0 46.8645 0H29.1313C22.5431 0 16.5163 3.43959 11.8706 9.11629C11.7385 9.22925 11.6293 9.36507 11.5469 9.51855C6.01894 16.4953 2.53125 26.6904 2.53125 38C2.53125 58.9 14.4379 76 29.1313 76H46.8646C47.2259 76 47.5849 75.9866 47.9426 75.9662C48.0477 75.9776 48.1525 75.9906 48.2579 76C60.4179 74.9866 70.5513 62.5734 72.9579 45.4734C72.9718 45.3411 72.9855 45.2071 72.9994 45.0739C73.3036 42.7801 73.4645 40.416 73.4645 38V37.7466ZM31.5705 57.9429C31.5437 57.7958 31.4874 57.6573 31.4058 57.5342C29.1612 51.9277 27.8645 45.2145 27.8645 38.0001C27.8645 19.2998 36.6941 3.95957 47.9454 2.57094C60.7428 3.40783 70.9313 19.0248 70.9313 38C70.9313 56.9764 60.7416 72.5941 47.9432 73.4294C41.0646 72.5899 35.1615 66.6477 31.5705 57.9429ZM6.64074 50.6145C6.91758 50.528 7.19441 50.3445 7.47125 50.16L9.11787 47.6266L11.7779 50.2866C12.2845 50.7932 13.0445 50.7932 13.5512 50.2866L16.4646 47.3732L19.5046 50.4132C20.0112 50.9199 20.7712 50.9199 21.278 50.4132L24.318 47.3732L26.3996 49.2357C26.8412 51.4955 27.4123 53.6659 28.1012 55.7248L25.8382 54.5932C25.2048 54.2132 24.5715 54.4666 24.1915 54.9732L22.5449 57.5066L19.8849 54.8466C19.3783 54.34 18.6183 54.34 18.1115 54.8466L15.1979 57.76L12.2845 54.8466C11.7779 54.34 11.0179 54.34 10.5111 54.8466L8.68235 56.6754C7.87723 54.7671 7.19159 52.7393 6.64074 50.6145ZM5.06998 38.6234L8.23125 40.4068C8.73787 40.6601 9.37125 40.5334 9.75125 40.1534L12.6646 37.24L15.7046 40.1534C16.2113 40.66 16.9712 40.66 17.478 40.1534L20.518 37.1134L25.3664 40.045C25.4274 41.8666 25.5685 43.655 25.7859 45.4002L24.8246 44.5868C24.318 44.2068 23.558 44.3334 23.178 44.7134L20.2646 47.6268L17.3512 44.7134C16.8446 44.2068 16.0846 44.2068 15.5779 44.7134L12.6645 47.6268L9.7511 44.7134C9.49772 44.46 9.11772 44.3334 8.73772 44.3334C8.35772 44.3334 7.97772 44.5868 7.72434 44.84L5.94502 47.5089C5.40827 44.6715 5.10605 41.6934 5.06998 38.6234ZM9.20767 18.131L12.0311 20.0134C12.4111 20.2668 13.0445 20.2668 13.4245 20.0134L16.4645 17.9868L19.6311 20.1401C20.0111 20.3935 20.6445 20.3935 21.0245 20.1401L24.1911 17.9868L28.2273 19.9472C27.5612 21.8877 26.9992 23.9277 26.5529 26.0487L24.951 24.4468C24.4443 23.9401 23.6843 23.9401 23.1776 24.4468L20.2642 27.3601L17.3508 24.4468C16.8442 23.9401 16.0842 23.9401 15.5774 24.4468L12.6645 27.36L9.7511 24.4466C9.49772 24.1932 9.24448 24.0666 8.86448 24.0666C8.48448 24.0666 8.2311 24.1932 7.97787 24.4466L6.48815 25.9878C7.17378 23.1908 8.09142 20.5546 9.20767 18.131ZM13.2863 11.3293L21.2779 8.99338L24.5712 11.1468C24.9513 11.4001 25.5846 11.4001 25.9646 11.1468L29.1313 8.99338L32.6642 10.7095C31.3056 12.7901 30.1029 15.119 29.0843 17.6467L24.4446 15.3268C24.0646 15.2001 23.558 15.2001 23.178 15.4534L20.138 17.48L17.098 15.4534C16.718 15.2 16.0846 15.2 15.7046 15.4534L12.6646 17.48L10.3552 15.8442C11.2413 14.2163 12.2221 12.7048 13.2863 11.3293ZM20.8979 34.4534C20.3913 34.2 19.7579 34.3268 19.3779 34.7068L16.4645 37.6201L13.5511 34.7068C13.0445 34.2001 12.2845 34.2001 11.7777 34.7068L8.6111 37.8734L5.10976 35.8575C5.18695 33.9632 5.36537 32.1082 5.63775 30.3037C5.79495 30.2403 5.95199 30.1459 6.07787 30.0201L8.86448 27.1068L11.7779 30.02C12.2845 30.5266 13.0445 30.5266 13.5512 30.02L16.4646 27.1066L19.378 30.02C19.8846 30.5266 20.6446 30.5266 21.1514 30.02L24.0648 27.1066L25.7114 28.7532C25.8058 28.8476 25.9091 28.9244 26.0178 28.9836C25.6121 31.6032 25.3789 34.3251 25.3382 37.1174L20.8979 34.4534ZM40.7217 2.53338C38.2942 4.02562 36.0619 6.11755 34.0938 8.68805L29.6379 6.46C29.2579 6.33338 28.7512 6.33338 28.3713 6.58662L25.3313 8.61323L22.2912 6.58662C21.9112 6.33323 21.5312 6.33323 21.1513 6.33323L16.7618 7.58738C20.3758 4.38188 24.6066 2.53323 29.1313 2.53323H40.7217V2.53338ZM9.80216 59.1023L11.3979 57.5066L14.3112 60.42C14.8179 60.9266 15.5779 60.9266 16.0846 60.42L18.9979 57.5066L21.9112 60.42C22.1646 60.6734 22.4179 60.8 22.7979 60.8C23.3045 60.8 23.6845 60.5466 23.8113 60.1666L25.7113 57.2532L29.3696 59.0824C30.3223 61.3319 31.4239 63.4131 32.6544 65.2911L30.2711 66.88L27.2311 64.8534C26.8511 64.6 26.2177 64.6 25.8377 64.8534L22.7979 66.88L19.7579 64.8534C19.3779 64.6 18.7445 64.6 18.3645 64.8534L15.2342 66.9403C13.1552 64.7648 11.3205 62.1157 9.80216 59.1023ZM29.1313 73.4666C24.732 73.4666 20.6105 71.7192 17.0636 68.6762L18.9979 67.3866L22.1645 69.4132C22.5445 69.6666 23.1779 69.6666 23.5579 69.4132L26.5979 67.3866L29.5112 69.54C29.8912 69.7934 30.5246 69.7934 30.9046 69.54L34.1428 67.3813C36.1089 69.9222 38.3387 71.9889 40.7656 73.4668H29.1313V73.4666Z" fill="#262626"/>
<path d="M49.3955 10.1332C42.8373 10.1332 37.3394 17.471 35.1786 27.9948C35.1658 28.0566 35.153 28.1185 35.1406 28.1804C35.0827 28.4688 35.0269 28.7591 34.9739 29.052C34.9558 29.1523 34.9387 29.2533 34.9212 29.3539C34.8854 29.5598 34.851 29.7667 34.8177 29.9747C34.7954 30.1135 34.7733 30.2522 34.7524 30.3918C34.7174 30.6241 34.6841 30.8579 34.6524 31.0928C34.6332 31.2343 34.6146 31.3761 34.5967 31.518C34.57 31.7292 34.5447 31.9416 34.5205 32.1549C34.5011 32.327 34.4827 32.4994 34.465 32.6724C34.4451 32.8664 34.4261 33.0611 34.4085 33.2568C34.3969 33.3843 34.3852 33.5118 34.3745 33.6397C34.351 33.9222 34.3298 34.2062 34.3109 34.4916C34.304 34.5979 34.2979 34.7046 34.2915 34.8112C34.2764 35.0628 34.263 35.3156 34.2514 35.5694C34.2482 35.6432 34.244 35.7165 34.241 35.7905C34.2278 36.1081 34.2183 36.4278 34.2109 36.7488C34.209 36.831 34.2075 36.9131 34.2059 36.9955C34.1996 37.3289 34.1953 37.6634 34.1953 37.9999C34.1953 38.3366 34.1996 38.671 34.2059 39.0044C34.2073 39.0867 34.209 39.1689 34.2109 39.2511C34.2183 39.572 34.228 39.8916 34.241 40.2094C34.244 40.2832 34.2482 40.3567 34.2514 40.4305C34.263 40.6843 34.2764 40.9369 34.2915 41.1885C34.2979 41.2951 34.304 41.4018 34.3109 41.5083C34.3299 41.7937 34.351 42.0777 34.3745 42.3601C34.385 42.4881 34.3969 42.6156 34.4085 42.7433C34.4263 42.9388 34.4451 43.1334 34.465 43.3274C34.4827 43.5003 34.5011 43.6729 34.5205 43.8451C34.5447 44.0583 34.57 44.2707 34.5967 44.4819C34.6146 44.624 34.6332 44.7656 34.6524 44.907C34.6841 45.1419 34.7174 45.3755 34.7524 45.6077C34.7735 45.7473 34.7956 45.8863 34.8179 46.0252C34.8511 46.2332 34.8855 46.44 34.9212 46.6457C34.9387 46.7465 34.9558 46.8474 34.9739 46.9478C35.0267 47.2406 35.0825 47.531 35.1404 47.8192C35.1529 47.8813 35.1656 47.9432 35.1784 48.0051C37.3391 58.5289 42.8372 65.8666 49.3953 65.8666C57.8819 65.8666 64.5953 53.5799 64.5953 37.9999C64.5953 22.4199 57.8821 10.1332 49.3955 10.1332ZM36.8975 42.006C36.8909 41.9278 36.8837 41.8498 36.8774 41.7714C36.8682 41.6552 36.8604 41.5384 36.8519 41.4217C36.8402 41.2574 36.829 41.0929 36.8191 40.9279C36.8135 40.8347 36.8075 40.7414 36.8025 40.6481C36.7884 40.3907 36.7756 40.1327 36.7655 39.8735C36.7637 39.8265 36.7625 39.779 36.7608 39.7319C36.7526 39.503 36.7461 39.2734 36.741 39.0432C36.7394 38.9692 36.7379 38.8955 36.7366 38.8214C36.732 38.5483 36.7287 38.2747 36.7287 37.9999C36.7287 37.7607 36.7315 37.522 36.7345 37.2834C36.8048 32.5587 37.5678 28.0993 38.8215 24.307C40.6816 27.4803 41.7955 32.492 41.7955 37.9998C41.7955 43.5076 40.6816 48.5193 38.8217 51.6927C37.8634 48.7939 37.192 45.5052 36.8975 42.006ZM49.3955 63.3332C45.6698 63.3332 42.2451 59.8752 39.8984 54.516C42.5813 51.2192 44.3287 44.9381 44.3287 37.9998C44.3287 31.0615 42.5811 24.7804 39.8984 21.4836C42.2449 16.1244 45.6697 12.6664 49.3955 12.6664C56.2355 12.6664 62.0621 24.3198 62.0621 37.9998C62.0621 51.6798 56.2355 63.3332 49.3955 63.3332Z" fill="#262626"/>
</svg>
